<?xml version="1.0" standalone="no"?>
<!DOCTYPE svg PUBLIC "-//W3C//DTD SVG 1.0//EN" "http://www.w3.org/TR/2001/REC-SVG-20010904/DTD/svg10.dtd">
<svg xmlns="http://www.w3.org/2000/svg" xmlns:xlink="http://www.w3.org/1999/xlink" id="body_1" width="133" height="100">

<g transform="matrix(0.10000001 0 0 0.10000001 16.5 -0)">
	<g>
		<g transform="matrix(0.1 0 -0 -0.1 0 511)">
            <path d="M945.1 3687.9C 548.69995 3590.2998 216.09998 3245.7 130.39996 2841.4C 88.59996 2644.2 90.59996 -1391.3003 132.39996 -1588.5C 216.09996 -1984.9 540.69995 -2327.5 929.1 -2429.1C 1032.7 -2455 1369.3 -2459 3582.2002 -2459L3582.2002 -2459L6117.8003 -2459L6117.8003 -2120.4L6117.8003 -1781.7999L3602.1003 -1777.7999L1084.4004 -1771.7999L988.8004 -1711.9999C 925.1004 -1672.1998 877.3004 -1622.3999 845.4004 -1564.5999L845.4004 -1564.5999L799.6004 -1476.9999L799.6004 -24.9L799.6004 1425.2L4404.8003 1425.2L8010.1006 1425.2L8010.1006 1285.7999L8010.1006 1146.3999L8299 1146.3999L8587.8 1146.3999L8587.8 1959C 8587.8 2861.3 8583.8 2897.2 8456.3 3140.2C 8368.6 3307.5 8163.5 3508.7 7994.1997 3594.3C 7737.1997 3723.8 7972.3 3715.8 4345.0996 3713.8C 1757.7 3711.8 1026.7 3707.9 945.1 3687.9zM7701.4 3016.7C 7880.6997 2966.9 7984.1997 2829.5 8004.1997 2610.4L8004.1997 2610.4L8016.0996 2480.9L4406.9 2480.9L799.7 2480.9L799.7 2604.4C 799.7 2811.5 889.3 2945 1076.6 3010.7C 1172.1 3044.6 7575.9 3050.6 7701.4 3016.7z" stroke="none" fill="#000000" fill-rule="nonzero" />
            <path d="M7880.7 608.5C 7502.2 532.8 7205.5 269.9 7072 -108.599976C 7028.2 -230.09998 7026.2 -267.99997 7024.2 -740L7024.2 -740L7024.2 -1239.9L6948.5 -1263.8C 6904.7 -1275.8 6833 -1325.6001 6785.2 -1373.4C 6637.8003 -1518.8 6631.8003 -1560.6 6639.8003 -2413.1C 6645.8003 -3120.2002 6647.8003 -3148.1 6689.6 -3225.8C 6745.4 -3329.4001 6825 -3403.1 6934.6 -3452.9001C 7022.2 -3492.7002 7060.1 -3494.7002 8257.2 -3494.7002C 9135.601 -3494.7002 9512.101 -3488.7002 9565.8 -3470.8003C 9667.399 -3440.9004 9792.899 -3333.4004 9848.6 -3227.8003C 9890.399 -3148.1003 9892.399 -3126.2002 9898.399 -2413.1003C 9904.399 -1560.6003 9900.399 -1518.8003 9754.999 -1375.4004C 9707.199 -1327.6003 9637.499 -1277.8004 9597.699 -1265.8004L9597.699 -1265.8004L9523.999 -1239.9004L9523.999 -779.8004C 9523.999 -443.2004 9515.999 -283.8004 9494.099 -192.20044C 9402.499 198.19955 9079.799 516.89954 8693.398 598.59955C 8546 630.5 8020.1 636.4 7880.7 608.5zM8653.5 58.8C 8765.1 21 8896.5 -100.5 8948.3 -214.09999C 8980.2 -287.8 8986.2 -349.59998 8986.2 -761.89996L8986.2 -761.89996L8986.2 -1224L8275.101 -1220L7562.0005 -1214L7562.0005 -745.9C 7562.0005 -303.7 7564.0005 -273.80002 7605.8003 -198.10004C 7661.6 -92.50004 7761.2 -0.9000397 7870.7 48.899963C 7948.4004 84.799965 8002.2 90.69997 8261.101 90.69997C 8482.2 90.7 8583.8 82.7 8653.5 58.8zM8362.7 -1943C 8547.9 -2012.7 8601.7 -2235.8 8468.3 -2379.2C 8410.5 -2441 8408.5 -2448.9 8408.5 -2652.0999C 8408.5 -2845.2998 8404.5 -2863.2 8358.7 -2907.0999C 8297 -2970.7998 8241.2 -2970.7998 8179.4004 -2907.0999C 8131.6006 -2861.2998 8129.6006 -2845.4 8129.6006 -2642.2C 8129.6006 -2445 8125.6006 -2421.0999 8087.801 -2387.2C 7870.7 -2196 8091.8 -1839.4 8362.7 -1943z" stroke="none" fill="#000000" fill-rule="nonzero" />
		</g>
	</g>
</g>
</svg>