<?xml version="1.0" standalone="no"?>
<!DOCTYPE svg PUBLIC "-//W3C//DTD SVG 1.0//EN" "http://www.w3.org/TR/2001/REC-SVG-20010904/DTD/svg10.dtd">
<svg xmlns="http://www.w3.org/2000/svg" xmlns:xlink="http://www.w3.org/1999/xlink" id="body_1" width="25" height="19">

<g transform="matrix(0.5102041 0 0 0.5135135 0 0)">
	<g transform="matrix(0.037 0 0 0.037 6.000001 -0)">
		<g>
            <path d="M990 882.8C 990 899.7 976.3 913.39996 959.4 913.39996C 942.5 913.39996 928.80005 899.69995 928.80005 882.8C 928.80005 737.4 827.30005 616.4 691.50006 585L691.50006 585L691.50006 583.5C 673.30005 577.9 659.9001 561.6 659.9001 541.6C 659.9001 519.8 675.9001 502.49997 696.50006 498.69998C 760.9001 470.09998 806.30005 406.5 806.30005 331.5C 806.30005 230 724.00006 147.8 622.50006 147.8L622.50006 147.8L622.50006 147.40001C 606.50006 146.40001 593.80005 133.40001 593.80005 117.20001C 593.80005 101.000015 606.50006 88.000015 622.50006 87.000015L622.50006 87.000015L622.50006 86.60001C 622.9001 86.60001 623.30005 86.70001 623.80005 86.70001C 624.00006 86.70001 624.2001 86.60001 624.4 86.60001C 625.10004 86.60001 625.60004 86.90002 626.30005 87.000015C 759.8 89 867.5 197.6 867.5 331.6C 867.5 419.8 820.5 496.40002 750.6 539.6C 890.1 591.7 990 725.1 990 882.8zM505.6 539.6C 645.1 591.7 745 725.1 745 882.8C 745 899.7 731.3 913.39996 714.4 913.39996C 697.5 913.39996 683.80005 899.69995 683.80005 882.8C 683.80005 713.69995 546.7001 576.5 377.50006 576.5C 208.40005 576.5 71.30005 713.6 71.30005 882.8C 71.30005 899.7 57.600048 913.39996 40.70005 913.39996C 23.80005 913.39996 10.10005 899.69995 10.10005 882.8C 10.10005 725.1 110.00005 591.69995 249.50005 539.5C 179.60004 496.3 132.60004 419.7 132.60004 331.5C 132.60004 196.2 242.30003 86.5 377.60004 86.5C 512.9 86.5 622.60004 196.2 622.60004 331.5C 622.5 419.7 575.5 496.4 505.6 539.6zM377.5 147.8C 276 147.8 193.8 230.1 193.8 331.6C 193.8 433.1 276.1 515.3 377.5 515.3C 479 515.3 561.3 433 561.3 331.59998C 561.3 230.19995 479 147.8 377.5 147.8z" stroke="none" fill="#000000" fill-rule="nonzero" />
		</g>
	</g>
</g>
</svg>