<?xml version="1.0" standalone="no"?>
<!DOCTYPE svg PUBLIC "-//W3C//DTD SVG 1.0//EN" "http://www.w3.org/TR/2001/REC-SVG-20010904/DTD/svg10.dtd">
<svg xmlns="http://www.w3.org/2000/svg" xmlns:xlink="http://www.w3.org/1999/xlink" id="body_1" width="80" height="60">

<g transform="matrix(0.88888896 0 0 0.882353 0 0)">
	<g transform="matrix(0.23257643 0 0 0.23257643 11 -0)">
		<g>
            <path d="M146.188 0C 65.576 0 0 65.582 0 146.188C 0 226.794 65.576 292.376 146.188 292.376C 226.80002 292.376 292.376 226.794 292.376 146.188C 292.376 65.582 226.801 0 146.188 0zM194.962 152.155L152.156 152.155L152.156 194.955C 152.156 198.255 149.489 200.922 146.18901 200.922C 142.889 200.922 140.22202 198.25499 140.22202 194.955L140.22202 194.955L140.22202 152.155L97.415 152.155C 94.121 152.155 91.448 149.482 91.448 146.188C 91.448 142.89401 94.120995 140.22101 97.415 140.22101L97.415 140.22101L140.22101 140.22101L140.22101 97.415C 140.22101 94.121 142.88802 91.448 146.188 91.448C 149.488 91.448 152.155 94.120995 152.155 97.415L152.155 97.415L152.155 140.22101L194.961 140.22101C 198.261 140.22101 200.928 142.89401 200.928 146.188C 200.928 149.482 198.261 152.155 194.962 152.155z" stroke="none" fill="#010002" fill-rule="nonzero" />
		</g>
		<g>
		</g>
		<g>
		</g>
		<g>
		</g>
		<g>
		</g>
		<g>
		</g>
		<g>
		</g>
		<g>
		</g>
		<g>
		</g>
		<g>
		</g>
		<g>
		</g>
		<g>
		</g>
		<g>
		</g>
		<g>
		</g>
		<g>
		</g>
		<g>
		</g>
	</g>
</g>
</svg>