<?xml version="1.0" standalone="no"?>
<!DOCTYPE svg PUBLIC "-//W3C//DTD SVG 1.0//EN" "http://www.w3.org/TR/2001/REC-SVG-20010904/DTD/svg10.dtd">
<svg xmlns="http://www.w3.org/2000/svg" xmlns:xlink="http://www.w3.org/1999/xlink" id="body_1" width="25" height="19">

<g transform="matrix(0.037109375 0 0 0.037109375 3 -0)">
    <path d="M160 416L96 416C 78.33 416 64 401.67 64 384L64 384L64 128C 64 110.33 78.33 96 96 96L96 96L160 96C 177.67 96 192 81.67 192 64C 192 46.33 177.7 32 160 32L160 32L96 32C 42.98 32 0 74.98 0 128L0 128L0 384C 0 437.02 42.98 480 96 480L96 480L160 480C 177.67 480 192 465.67 192 448C 192 430.33 177.7 416 160 416zM502.6 233.4L374.6 105.399994C 362.09 92.88999 341.84 92.909996 329.35 105.399994C 316.85 117.899994 316.85 138.15 329.35 150.65L329.35 150.65L402.8 224L192 224C 174.3 224 160 238.3 160 256C 160 273.7 174.31 288 192 288L192 288L402.8 288L329.41998 361.38C 316.91998 373.88 316.91998 394.13 329.41998 406.63C 341.91998 419.13 362.16998 419.13 374.66998 406.63L374.66998 406.63L502.66998 278.63C 515.1 266.1 515.1 245.9 502.6 233.4z" stroke="none" fill="#000000" fill-rule="nonzero" />
</g>
</svg>