<?xml version="1.0" standalone="no"?>
<!DOCTYPE svg PUBLIC "-//W3C//DTD SVG 1.0//EN" "http://www.w3.org/TR/2001/REC-SVG-20010904/DTD/svg10.dtd">
<svg xmlns="http://www.w3.org/2000/svg" xmlns:xlink="http://www.w3.org/1999/xlink" id="body_1" width="133" height="100">

<g transform="matrix(0.10000001 0 0 0.10000001 16.5 -0)">
	<g>
		<g transform="matrix(0.1 0 -0 -0.1 0 511)">
            <path d="M4823.8 3861.7C 4780.3 3853.8 4495.3 3721.2 4190.5 3570.8C 3685.8 3321.4001 3586.9 3279.9001 3082.2 3111.7C 2510.2998 2919.7 2423.2 2878.2 2294.5 2735.7C 2197.5 2626.9 2185.7 2603.0999 2023.4 2110.2998C 1843.3 1564.0999 1754.2 1342.3998 1540.5 916.8998L1540.5 916.8998L1370.3 576.49976L1275.3 576.49976C 1128.8 574.49976 1103.1001 542.8998 996.30005 216.29974L996.30005 216.29974L933 24.4L568.9 18.4C 240.40002 12.5 202.80002 8.5 163.20001 -27.1C 72.20001 -110.2 74.10001 -132 204.80002 -660.39996L204.80002 -660.39996L329.5 -1153.2L204.8 -1650C 74.1 -2178.3 72.1 -2202 163.2 -2283.2C 204.79999 -2320.8 238.4 -2322.8 770.8 -2328.7L770.8 -2328.7L1332.8 -2334.5999L1402.1001 -2265.2998C 1465.4001 -2201.9998 1469.4001 -2190.0999 1469.4001 -2061.4998L1469.4001 -2061.4998L1469.4001 -1922.9998L1766.3002 -1994.1997C 1928.6002 -2033.7997 2071.1 -2075.3997 2081.0002 -2085.2998C 2088.9001 -2097.1997 2112.7002 -2154.5999 2132.5002 -2213.9C 2180.0002 -2366.2998 2243.3003 -2469.2 2346.2002 -2564.2C 2468.9001 -2679 2518.4001 -2698.8 3112.1 -2896.7C 3587.1 -3057 3688 -3098.5999 4184.7 -3345.9C 5010 -3755.5999 4974.3003 -3755.5999 5799.6 -3345.9C 6296.4 -3098.5 6397.3003 -3057 6872.2 -2896.7C 7465.9004 -2698.8 7515.4004 -2679 7638.1 -2564.2C 7741 -2469.2 7804.3003 -2366.3 7851.8003 -2213.9C 7871.6 -2154.5 7895.3003 -2095.0999 7909.2 -2083.2998C 7921.1 -2071.4 8051.7 -2031.8998 8198.101 -1996.1998C 8344.601 -1960.5999 8477.101 -1926.8998 8491.001 -1922.9999C 8508.801 -1915.0999 8514.801 -1948.6998 8514.801 -2055.5999C 8514.801 -2192.0999 8518.801 -2201.9998 8582.101 -2265.4L8582.101 -2265.4L8649.4 -2332.7L9207.5 -2332.7L9765.6 -2332.7L9832.899 -2265.4C 9870.499 -2227.7998 9900.199 -2178.2998 9900.199 -2156.5999C 9900.199 -2132.7998 9846.799 -1897.3999 9779.499 -1634.0999L9779.499 -1634.0999L9660.799 -1155.1998L9779.499 -678.1998C 9846.799 -416.99982 9900.199 -181.49982 9900.199 -157.69983C 9900.199 -131.99983 9870.499 -82.49983 9832.899 -44.899826L9832.899 -44.899826L9765.6 22.400177L9401.399 22.400177L9035.3 22.400177L8968 242.10017C 8884.9 515.2002 8835.4 576.60016 8704.8 576.60016L8704.8 576.60016L8613.8 576.60016L8443.6 917.0001C 8229.8 1342.5001 8140.8 1564.1001 7960.6997 2110.4001C 7798.4 2603.2002 7786.4995 2626.9001 7689.5996 2735.8003C 7560.9995 2878.3003 7473.8994 2919.8003 6911.8 3107.9004C 6415.0996 3274.1003 6316.0996 3313.7004 5783.8 3575.0005C 5215.8 3854.0005 5196 3862.0005 5051.5996 3871.9004C 4970.2 3875.6 4867.3 3871.6 4823.8 3861.7zM5550.1 3236.4C 6133.9 2945.5 6171.5 2929.5999 6822.6 2712C 7182.8003 2593.3 7331.2 2533.9 7368.8003 2496.3C 7406.4004 2460.7 7457.9004 2330.1 7564.7 2011.4C 7764.6 1409.8 7833.8003 1233.6001 8039.7 814.1C 8168.3003 552.89996 8211.9 447.99997 8196.101 436.09998C 8164.4004 416.3 7772.6006 313.39996 7444.1006 238.19998C 5746.1006 -151.70001 3824.4006 -118.00003 2146.2007 331.19998C 1997.8007 370.8 1855.3007 408.39996 1829.6007 414.3C 1803.9008 418.3 1778.1007 434.09998 1772.2007 449.9C 1768.2007 463.69998 1817.7007 576.6 1883.0007 699.3C 2078.9006 1067.4 2195.7007 1348.3999 2385.7007 1912.3999C 2516.3008 2304.2 2579.7007 2460.5999 2615.3008 2498.2C 2652.901 2535.8 2797.401 2591.2 3161.5007 2711.9C 3780.901 2917.7 3864.1006 2951.4 4453.801 3246.2C 4732.801 3384.7 4960.401 3485.7 4992.1006 3485.7C 5025.6 3485.7 5259.2 3380.8 5550.1 3236.4zM1758.3 34.3C 2540 -189.4 3335.5 -329.9 4190.5 -393.2C 4550.7 -418.90002 5399.7 -418.90002 5787.6 -391.2C 6630.7 -333.80002 7574.7 -163.6 8344.5 71.899994C 8473.1 111.49999 8582 139.2 8585.9 135.2C 8589.9 131.2 8704.601 -199.3 8841.2 -599C 9027.2 -1141.3 9084.601 -1333.2 9066.8 -1345.1C 9031.2 -1364.9 8469.1 -1529.1 8182.1997 -1600.4C 6114.0996 -2114.9 3994.5996 -2124.8 1904.6997 -1628.1C 1746.3997 -1590.5 1538.5997 -1537.1 1439.5997 -1509.2999C 998.29974 -1378.7 873.59973 -1339.1 879.49976 -1325.2999C 883.49976 -1317.3999 996.29974 -984.8999 1132.7998 -585.0999C 1269.3998 -185.29993 1380.1998 141.20007 1382.1998 141.20007C 1384.1998 141.20007 1552.4 93.7 1758.3 34.3zM723.2 -583.2C 685.6 -697.9 650 -787 644.1 -781.1C 634.19995 -773.19995 541.19995 -416.99997 539.19995 -387.3C 539.19995 -379.4 596.6 -373.4 665.89996 -373.4L665.89996 -373.4L794.5 -373.4L723.2 -583.2zM9444.8 -387.3C 9444.8 -422.9 9339.899 -830.6 9334 -822.69995C 9322.1 -812.7999 9187.5 -410.99994 9187.5 -389.29996C 9187.5 -381.39996 9244.9 -373.49997 9316.1 -373.49997C 9387.4 -373.4 9444.8 -379.3 9444.8 -387.3zM861.7 -1740.9L1073.5 -1808.2001L1073.5 -1871.5001L1073.5 -1936.8002L806.3 -1936.8002C 659.9 -1936.8002 539.1 -1932.8002 539.1 -1926.9001C 539.1 -1867.5001 608.39996 -1659.7002 626.19995 -1665.7002C 638.1 -1671.6 743 -1705.3 861.7 -1740.9zM9403.3 -1735C 9415.2 -1776.5 9431 -1837.9 9436.899 -1873.5L9436.899 -1873.5L9450.8 -1936.8L9179.7 -1936.8L8910.601 -1936.8L8910.601 -1871.5L8910.601 -1804.2L9134.2 -1733C 9254.9 -1695.4 9361.8 -1661.7 9369.7 -1661.7C 9377.5 -1659.8 9393.4 -1693.4 9403.3 -1735zM7418.3 -2211.9C 7402.5 -2241.5999 7368.8 -2281.2 7343.0996 -2297C 7317.3994 -2312.8 7048.1997 -2409.8 6743.4995 -2512.7C 6236.8994 -2680.9 6139.8994 -2722.5 5617.3994 -2979.8C 5294.7993 -3140.1 5021.699 -3262.8 4989.9995 -3262.8C 4960.2993 -3262.8 4714.8994 -3154 4433.8994 -3013.4001C 3857.9995 -2726.4001 3717.4995 -2669.0002 3121.7993 -2471.1C 2882.2993 -2391.9001 2666.5994 -2312.8 2640.8994 -2297C 2591.3994 -2265.3 2547.8994 -2198 2565.6995 -2180.2C 2571.5994 -2174.3 2698.2996 -2188.0999 2848.6995 -2209.9C 3681.8994 -2338.5 4024.1995 -2362.2998 5001.8994 -2362.2998C 5660.8994 -2360.2998 5933.9995 -2352.4 6209.0996 -2326.6997C 6549.4995 -2292.9998 7139.1997 -2213.8997 7327.3 -2176.2998C 7376.8 -2166.4 7422.3 -2158.4998 7432.1997 -2156.4998C 7440.1 -2154.5 7434.1 -2180.3 7418.3 -2211.9z" stroke="none" fill="#000000" fill-rule="nonzero" />
            <path d="M4261.7 2177.6C 3994.5002 2124.2002 3865.9001 1876.8 3863.9001 1415.7001C 3863.9001 1037.7001 3943.1 837.80005 4141 721.1001C 4234 663.7001 4265.7 655.8001 4388.4 655.8001C 4619.9 655.8001 4774.3 770.6001 4865.3 1012.0001C 4916.8 1144.6001 4916.8 1653.2002 4867.3 1803.6001C 4772.3 2092.5 4542.8 2235 4261.7 2177.6zM4524.9 1930.2C 4552.6 1900.5 4588.1997 1841.1 4600.1 1795.6C 4635.7 1680.7999 4633.7 1166.3 4598.1 1045.5C 4530.8003 815.9 4297.3003 784.3 4196.3003 990.1C 4154.7 1073.2 4150.8003 1108.7999 4150.8003 1407.7C 4150.8003 1864.8999 4198.3003 1981.6 4390.3003 1981.6C 4451.7 1981.7 4485.4 1969.8 4524.9 1930.2z" stroke="none" fill="#000000" fill-rule="nonzero" />
            <path d="M5427.4 2181.5C 5251.3 2145.9 5116.6997 2011.3 5059.3 1817.4C 5009.8 1647.2001 5007.8 1188.1001 5055.3 1029.7C 5096.9 897.1 5223.5 744.69995 5338.3 693.2999C 5433.3 649.7999 5637.0996 643.7999 5732.0996 683.3999C 5838.9995 728.8999 5931.9995 825.8999 5993.3 956.4999C 6048.6997 1079.1998 6050.6997 1089.0999 6050.6997 1407.7C 6048.6997 1771.7999 6022.9995 1876.7 5902.3 2025.2C 5801.4 2147.9 5595.6 2215.2 5427.4 2181.5zM5658.9 1952C 5746 1890.6 5773.6997 1762 5773.6997 1417.7C 5773.6997 1073.3999 5757.9 990.19995 5670.8 905.1C 5607.5 839.8 5494.6997 835.8 5421.4 893.19995C 5328.4 966.39996 5298.6997 1089.1 5298.6997 1407.7C 5298.6997 1726.2999 5324.4 1853 5403.5996 1932.1C 5461 1989.6 5589.7 1999.5 5658.9 1952z" stroke="none" fill="#000000" fill-rule="nonzero" />
            <path d="M3321.7 2064.8C 3224.7 1938.1001 3187.0999 1908.4 2993.2 1803.6001C 2880.4 1742.2001 2864.5999 1726.4001 2858.5999 1671.0001C 2852.7 1621.5001 2862.5999 1601.7001 2904.0999 1574.0001C 2951.5999 1542.3002 2959.4998 1542.3002 3034.7 1578.0001C 3080.2 1597.8002 3157.4 1643.3002 3208.9 1678.9001L3208.9 1678.9001L3299.9 1744.2002L3309.7998 1229.6002C 3321.6997 661.6002 3323.6997 649.7002 3448.2998 649.7002C 3576.9 649.7002 3576.9 643.8002 3582.9 1401.7002C 3588.7998 2159.7002 3586.9 2179.5002 3468.0999 2179.5002C 3422.6 2179.6 3394.9 2157.8 3321.7 2064.8z" stroke="none" fill="#000000" fill-rule="nonzero" />
            <path d="M6262.5 1833.2C 6181.3 1797.6 6139.8 1704.6 6139.8 1558.1C 6139.8 1419.6 6187.3 1318.6 6270.4 1279.1C 6403 1215.7999 6545.5 1257.2999 6602.9 1376.1C 6642.5 1461.2 6644.5 1649.2 6602.9 1734.3C 6549.5 1849.1 6399.1 1892.6 6262.5 1833.2zM6470.3 1704.6C 6502 1641.2999 6502 1471.1 6470.3 1407.7C 6452.5 1372.1 6428.6997 1358.2 6387.1997 1358.2C 6304.0996 1358.2 6274.4 1425.5 6284.3 1581.7999C 6290.1997 1649.1 6304.0996 1718.3999 6319.9 1736.2C 6355.5 1779.8 6440.6 1762 6470.3 1704.6z" stroke="none" fill="#000000" fill-rule="nonzero" />
            <path d="M7113.5 1839.2C 7062 1775.8999 6397.1 687.3999 6397.1 665.6C 6397.1 633.89996 6442.6 614.1 6470.3003 632C 6503.9004 653.8 7208.5005 1797.7 7208.5005 1831.3C 7208.5 1868.9 7143.2 1872.8 7113.5 1839.2z" stroke="none" fill="#000000" fill-rule="nonzero" />
            <path d="M7089.8 1243.5C 6975 1186.1 6927.5 915 7010.5996 778.4C 7091.6997 645.80005 7269.8 624 7390.5996 732.9C 7445.9995 782.4 7453.8994 804.2 7461.8 918.9C 7471.6997 1083.2001 7440 1182.1001 7358.9 1231.6001C 7289.6 1275.1 7163 1281.1 7089.8 1243.5zM7303.5 1110.9C 7339.1 1043.6 7325.3 823.9 7283.7 782.4C 7238.2 734.9 7153.1 760.60004 7127.4004 829.9C 7099.7 899.2 7113.5005 1099.1001 7149.2 1140.6001C 7186.7 1186.1 7271.8 1170.3 7303.5 1110.9z" stroke="none" fill="#000000" fill-rule="nonzero" />
            <path d="M1356.5 -397.1C 1348.6 -410.9 1305.1 -583.1 1259.5 -779.1C 1172.4 -1157.1 1172.4 -1204.6 1261.5 -1204.6C 1326.8 -1204.6 1336.7 -1176.9 1402 -864.19995C 1431.7 -713.7999 1461.4 -595.1 1465.3 -598.99994C 1469.3 -602.99994 1479.2001 -747.3999 1489.1001 -919.6C 1508.9001 -1256 1518.8 -1283.7 1619.7001 -1283.7C 1679.1001 -1283.7 1687.0001 -1269.8999 1833.4 -957.19995C 1904.7001 -804.7999 1964 -693.99994 1964 -711.7999C 1964 -729.5999 1942.2 -866.19995 1914.5 -1014.5999C 1859.1 -1309.4999 1863 -1343.0999 1956.1 -1343.0999C 2019.4 -1343.0999 2025.4 -1323.2998 2094.6 -899.79987C 2150 -553.4999 2150 -547.4999 2112.4001 -519.79987C 2092.6 -503.99988 2037.2002 -492.09985 1989.7002 -492.09985L1989.7002 -492.09985L1904.6002 -492.09985L1782 -737.5C 1714.7 -874.1 1653.4 -981 1645.4 -977C 1639.5 -971.1 1627.6 -856.3 1619.7001 -719.7C 1611.8 -583.1 1601.9 -458.5 1594.0001 -442.6C 1584.1001 -414.9 1473.3002 -373.3 1406.0001 -373.3C 1388.2 -373.4 1366.4 -385.3 1356.5 -397.1z" stroke="none" fill="#000000" fill-rule="nonzero" />
            <path d="M8144.6 -610.9L7986.3003 -850.4L7954.6 -688.10004C 7936.8003 -599.00006 7911.1 -513.9 7899.2 -500.10004C 7869.5 -462.50003 7812.1 -464.50003 7782.4004 -504.10004C 7760.6006 -529.80005 7766.6006 -597.10004 7820.0005 -903.9C 7855.6006 -1105.8 7893.2007 -1283.9 7905.1006 -1297.7C 7932.801 -1331.2999 8010.0005 -1329.3999 8037.7007 -1295.7C 8055.5005 -1273.8999 8057.5005 -1238.2999 8041.6006 -1153.2C 8017.9004 -1032.5 8013.9004 -1046.2999 8130.7007 -889.99994C 8134.7007 -885.99994 8221.801 -961.2999 8326.601 -1056.2C 8481.001 -1194.7 8524.501 -1224.3999 8560.101 -1212.5C 8682.801 -1176.9 8653.101 -1109.6 8425.501 -909.7C 8255.301 -761.30005 8237.501 -741.5 8261.201 -707.80005C 8275.102 -688.00006 8322.501 -620.7001 8364.102 -559.4C 8449.201 -438.7 8447.201 -389.2 8352.201 -377.30002C 8310.8 -371.4 8283.1 -401.1 8144.6 -610.9z" stroke="none" fill="#000000" fill-rule="nonzero" />
            <path d="M7186.7 -605C 7097.6 -650.5 7069.9004 -678.2 7024.4004 -769.3C 6974.9004 -864.3 6969.0005 -894 6976.9004 -1000.9C 6994.7 -1248.3 7125.3003 -1400.6001 7335.1006 -1418.5C 7531.0005 -1434.3 7695.301 -1347.3 7752.7007 -1196.9C 7792.301 -1092 7770.5005 -1026.7001 7693.301 -1026.7001C 7653.7007 -1026.7001 7641.901 -1042.5001 7622.1006 -1107.8C 7548.9004 -1349.2001 7232.2007 -1343.3 7166.9004 -1099.9C 7133.3003 -975.2 7153.0005 -818.9 7208.5005 -759.5C 7307.5005 -652.6 7455.9004 -660.5 7562.8003 -777.3C 7618.2 -836.7 7673.6 -844.6 7699.3003 -793.1C 7733.0005 -729.8 7679.5005 -650.6 7560.8003 -589.19995C 7451.9 -533.7 7317.4 -539.6 7186.7 -605z" stroke="none" fill="#000000" fill-rule="nonzero" />
            <path d="M2357.9 -616.8C 2225.2998 -688 2158 -810.69995 2148.0999 -1002.69995C 2142.2 -1135.2999 2146.0999 -1165 2185.7 -1234.2C 2328.2 -1477.6 2737.7998 -1515.2 2898.2 -1301.5C 2999.0999 -1165 3024.9 -947.3 2955.5999 -796.8C 2864.5 -597 2567.7 -508 2357.9 -616.8zM2739.9 -767.2C 2793.2998 -814.7 2803.2 -838.5 2811.0999 -941.4C 2826.9 -1172.9 2735.9 -1303.6001 2555.7998 -1303.6001C 2478.5999 -1303.6001 2446.9998 -1293.7001 2395.4998 -1246.2001C 2342.0999 -1198.7001 2332.1997 -1174.9 2324.2998 -1072.0001C 2308.4998 -840.5001 2399.4998 -709.90015 2579.5999 -709.90015C 2656.7 -709.8 2688.4 -719.7 2739.9 -767.2z" stroke="none" fill="#000000" fill-rule="nonzero" />
            <path d="M3131.7 -668.3C 3096.0999 -692.1 3009 -1412.3999 3036.7 -1465.8999C 3046.5999 -1485.7 3076.3 -1501.4999 3102 -1501.4999C 3169.3 -1501.4999 3183.1 -1463.8999 3210.8 -1194.7998C 3222.7 -1064.1998 3236.5 -955.2998 3240.5 -951.3998C 3246.4 -945.3998 3286 -1012.69977 3456.2 -1317.4998C 3517.5999 -1430.2998 3586.8 -1529.1997 3606.5999 -1541.0997C 3663.9998 -1572.7997 3721.4 -1564.8998 3743.2 -1523.2997C 3755.0999 -1503.4996 3774.9 -1319.4996 3788.7 -1117.5996C 3808.5 -787.0996 3808.5 -745.49963 3780.8 -717.7996C 3733.3 -670.2996 3672 -699.99963 3660.1 -775.19965C 3654.2002 -810.7996 3642.3 -939.49963 3634.4001 -1062.1997C 3626.5002 -1184.8997 3616.6 -1279.8997 3608.7002 -1273.9998C 3602.8003 -1266.0997 3521.6 -1125.5997 3428.6 -961.29974C 3288.1 -709.99976 3252.5 -660.49976 3210.9001 -654.59973C 3183.2 -652.4 3147.5 -658.4 3131.7 -668.3z" stroke="none" fill="#000000" fill-rule="nonzero" />
            <path d="M6482.2 -686.1C 6462.4004 -703.89996 6407 -848.39996 6359.5 -1006.69995C 6270.4 -1301.6 6238.8 -1372.7999 6238.8 -1277.7999C 6238.8 -1218.3999 6161.5996 -1125.3999 6110.1997 -1125.3999C 6068.6997 -1125.3999 6072.5996 -1111.5999 6129.9995 -1042.2999C 6207.1997 -951.2999 6187.3994 -824.5999 6082.4995 -755.2999C 6040.8994 -727.5999 5991.4995 -721.5999 5805.3994 -725.5999C 5682.699 -729.5999 5561.9995 -741.3999 5540.199 -751.2999C 5502.599 -773.0999 5500.599 -786.8999 5512.499 -1149.0999C 5520.399 -1410.2998 5530.299 -1532.9999 5548.099 -1554.7998C 5569.899 -1578.4998 5605.499 -1582.4998 5763.7993 -1572.5999C 6040.8994 -1552.7998 6096.2993 -1542.8999 6157.599 -1489.4999L6157.599 -1489.4999L6214.999 -1441.9999L6226.899 -1493.4999C 6238.799 -1535.0999 6250.599 -1542.9999 6302.099 -1536.9999C 6357.499 -1531.0999 6367.399 -1519.1998 6397.099 -1434.0999C 6432.699 -1323.2998 6444.599 -1317.2998 6658.2993 -1297.5999L6658.2993 -1297.5999L6790.8994 -1285.6998L6850.2993 -1382.6998C 6915.599 -1487.5999 6963.099 -1507.3998 7018.4995 -1449.9999C 7036.2993 -1434.1998 7050.1997 -1414.3999 7050.1997 -1406.4999C 7050.1997 -1386.6998 6725.5996 -810.79987 6666.3 -723.6999C 6608.9 -640.6 6539.6 -626.7 6482.2 -686.1zM6686 -1169C 6626.6 -1186.8 6476.2 -1186.8 6476.2 -1169C 6476.2 -1161.1 6496 -1079.9 6519.7 -988.9L6519.7 -988.9L6563.2 -824.7L6646.3003 -988.9C 6727.6 -1151.2 6727.6 -1155.1 6686 -1169zM5993.4 -905.8C 6011.1997 -939.39996 6011.1997 -965.2 5995.4 -1000.8C 5973.6 -1050.3 5953.8 -1056.2 5791.6 -1076L5791.6 -1076L5690.7 -1085.9L5676.9004 -1012.7C 5649.2 -842.5 5647.2 -846.5 5817.4004 -852.4C 5955.8 -858.3 5973.6 -862.2 5993.4 -905.8zM6017.1 -1218.5C 6058.7 -1254.1 6066.6 -1281.8 6062.6 -1347.1C 6058.7 -1406.5 5953.8003 -1444.1 5817.2 -1438.1L5817.2 -1438.1L5694.5 -1432.2L5688.6 -1325.2999C 5680.7 -1194.7 5692.6 -1184.7999 5854.8003 -1184.7999C 5943.9 -1184.8 5989.4 -1194.7 6017.1 -1218.5z" stroke="none" fill="#000000" fill-rule="nonzero" />
            <path d="M3931.2 -753.4C 3923.3 -765.30005 3907.5 -943.4 3897.5999 -1149.2C 3881.7998 -1430.2 3881.7998 -1527.2 3899.5999 -1545C 3915.4 -1560.8 4024.2998 -1568.7 4234.0996 -1568.7L4234.0996 -1568.7L4546.8 -1570.7L4546.8 -1521.2C 4546.8 -1471.7 4544.8 -1471.7 4303.4 -1453.8999L4303.4 -1453.8999L4060 -1436.0999L4065.9 -1317.2998L4071.7998 -1200.4998L4289.5 -1196.5997L4507.2 -1194.5997L4507.2 -1145.0997C 4507.2 -1103.4998 4497.3003 -1095.5997 4437.9004 -1091.6997C 4400.3003 -1087.6997 4303.3003 -1079.7997 4226.1006 -1073.8997L4226.1006 -1073.8997L4081.6006 -1061.9996L4081.6006 -959.0996L4081.6006 -856.1996L4299.301 -864.0996C 4455.6006 -869.99963 4524.901 -866.0996 4546.7007 -848.2996C 4562.5005 -834.3996 4576.401 -832.49963 4576.401 -842.3996C 4576.401 -852.2996 4629.801 -945.2996 4695.101 -1046.1996L4695.101 -1046.1996L4813.8013 -1232.1996L4813.8013 -1392.4996C 4813.8013 -1560.6996 4829.601 -1600.2997 4902.9014 -1600.2997C 4974.201 -1600.2997 4992.0015 -1560.6997 4992.0015 -1396.4996L4992.0015 -1396.4996L4992.0015 -1238.1996L5120.6016 -1036.2996C 5255.2017 -826.4996 5267.1016 -788.89954 5219.5015 -749.29956C 5178.0015 -715.6996 5124.5015 -739.39954 5081.0015 -812.59955C 5061.2017 -848.1995 5013.7017 -925.39954 4976.1016 -984.79956L4976.1016 -984.79956L4908.802 -1089.6996L4792.002 -909.5996C 4679.202 -735.49963 4635.702 -699.7996 4586.202 -747.2996C 4574.3022 -757.19965 4518.9023 -757.19965 4457.602 -749.2996C 4285.5 -723.7 3947.1 -725.7 3931.2 -753.4z" stroke="none" fill="#000000" fill-rule="nonzero" />
		</g>
	</g>
</g>
</svg>