<?xml version="1.0" standalone="no"?>
<!DOCTYPE svg PUBLIC "-//W3C//DTD SVG 1.0//EN" "http://www.w3.org/TR/2001/REC-SVG-20010904/DTD/svg10.dtd">
<svg xmlns="http://www.w3.org/2000/svg" xmlns:xlink="http://www.w3.org/1999/xlink" id="body_1" width="25" height="19">

<g transform="matrix(0.8064517 0 0 0.82608694 0 0)">
	<g transform="matrix(0.044921875 0 0 0.044921875 2.5625005 -0)">
        <path d="M171.7 191.1L404.3 191.1L322.7 35.07C 316.6 23.31 321.2 8.821 332.9 2.706C 344.7 -3.409 359.2 1.167 365.3 12.93L365.3 12.93L458.4 191.1L544 191.1C 561.7 191.1 576 206.3 576 223.1C 576 241.7 561.7 255.1 544 255.1L544 255.1L492.1 463.5C 484.1 492 459.4 512 430 512L430 512L145.1 512C 116.6 512 91 492 83.88 463.5L83.88 463.5L32 255.1C 14.33 255.1 0 241.7 0 223.1C 0 206.3 14.33 191.1 32 191.1L32 191.1L117.6 191.1L210.7 12.93C 216.8 1.167 231.3 -3.409 243.1 2.706C 254.8 8.821 259.4 23.31 253.3 35.07L253.3 35.07L171.7 191.1zM191.1 303.1C 191.1 295.1 184.8 287.1 175.1 287.1C 167.2 287.1 159.1 295.1 159.1 303.1L159.1 303.1L159.1 399.1C 159.1 408.8 167.2 415.1 175.1 415.1C 184.8 415.1 191.1 408.8 191.1 399.1L191.1 399.1L191.1 303.1zM271.1 303.1L271.1 399.1C 271.1 408.8 279.2 415.1 287.1 415.1C 296.8 415.1 304 408.8 304 399.1L304 399.1L304 303.1C 304 295.1 296.8 287.1 287.1 287.1C 279.2 287.1 271.1 295.1 271.1 303.1zM416 303.1C 416 295.1 408.8 287.1 400 287.1C 391.2 287.1 384 295.1 384 303.1L384 303.1L384 399.1C 384 408.8 391.2 415.1 400 415.1C 408.8 415.1 416 408.8 416 399.1L416 399.1L416 303.1z" stroke="none" fill="#000000" fill-rule="nonzero" />
	</g>
</g>
</svg>