<?xml version="1.0" standalone="no"?>
<!DOCTYPE svg PUBLIC "-//W3C//DTD SVG 1.0//EN" "http://www.w3.org/TR/2001/REC-SVG-20010904/DTD/svg10.dtd">
<svg xmlns="http://www.w3.org/2000/svg" xmlns:xlink="http://www.w3.org/1999/xlink" id="body_1" width="100" height="100">

<g transform="matrix(4.166667 0 0 4.166667 0 0)">
    <path d="M5 18L4 18C 3.448 18 3 17.552 3 17L3 17L3 15L15 15L15 6L19.667 6C 20.784 6 21.267 6.576 21.603 7.107C 22.197 8.047 23.139 9.539 23.712 10.485C 23.9 10.797 24 11.155 24 11.5199995L24 11.5199995L24 16C 24 17.121 23.272 18 22 18L22 18L21 18C 21 19.656 19.656 21 18 21C 16.344 21 15 19.656 15 18L15 18L11 18C 11 19.656 9.656 21 8 21C 6.344 21 5 19.656 5 18zM8 16.8C 8.662 16.8 9.2 17.338 9.2 18C 9.2 18.662 8.662 19.2 8 19.2C 7.338 19.2 6.8 18.662 6.8 18C 6.8 17.338 7.3380003 16.8 8 16.8zM18 16.8C 18.662 16.8 19.2 17.338 19.2 18C 19.2 18.662 18.662 19.2 18 19.2C 17.338 19.2 16.8 18.662 16.8 18C 16.8 17.338 17.338 16.8 18 16.8zM8 7.999999L0 7.999999L0 5.999999L8 5.999999L8 4.999999L3 4.999999L3 3.999999C 3 3.447999 3.448 2.999999 4 2.999999L4 2.999999L13 2.999999C 13.552 2.999999 14 3.447999 14 3.999999L14 3.999999L14 13.999999L3 13.999999L3 10.999999L1 10.999999L1 8.999999L8 8.999999L8 7.999999zM17 7.999999L17 10.999999L21.715 10.999999L20.288 8.503999C 20.11 8.1919985 19.779 7.9999986 19.42 7.9999986L19.42 7.9999986L17 7.9999986z" stroke="none" fill="#000000" fill-rule="nonzero" />
</g>
</svg>