<?xml version="1.0" standalone="no"?>
<!DOCTYPE svg PUBLIC "-//W3C//DTD SVG 1.0//EN" "http://www.w3.org/TR/2001/REC-SVG-20010904/DTD/svg10.dtd">
<svg xmlns="http://www.w3.org/2000/svg" xmlns:xlink="http://www.w3.org/1999/xlink" id="body_1" width="100" height="100">

<g transform="matrix(4.166667 0 0 4.166667 0 0)">
    <path d="M3.848 19L3 19C 2.204 19 1.441 18.684 0.87899995 18.121C 0.31599993 17.559 -5.9604645E-08 16.796 -5.9604645E-08 16L-5.9604645E-08 16L-5.9604645E-08 13C -5.9604645E-08 5.825 5.377 0 12 0C 18.623001 0 24 5.825 24 13L24 13L24 16C 24 16.796 23.684 17.559 23.121 18.121C 22.559 18.684 21.796 19 21 19L21 19L20.152 19C 17.462 23.633 13.248001 24 12 24C 10.752 24 6.538 23.633 3.8479996 19L3.8479996 19L3.848 19zM20 13.124001C 19.399 13.360001 18.730999 12.944 18.730999 12.327001C 18.730999 12.023001 18.709 11.717001 18.678 11.412001C 16.917 11.158001 15.059999 9.486001 14.979 7.6890006C 13.664 9.694 10.454 11.859001 7.935 11.859001C 9.021 11.160001 9.774 9.086001 9.838 8.351002C 9.257 9.443002 6.9400005 11.487001 5.287 11.838001L5.287 11.838001L5.269 12.327002C 5.269 12.946002 4.6 13.359001 4 13.1240015L4 13.1240015L4 16.895C 4.287 17.151001 4.632 17.359001 5.041 17.489C 5.266 17.561 5.453 17.713001 5.562 17.913C 7.7679996 21.959 10.988 22 12 22C 12.929 22 15.719 21.965 17.876999 18.831C 16.806 19.264 15.611999 19.435 14.117999 19.484C 13.747999 20.084 12.937999 20.5 11.999999 20.5C 10.711999 20.5 9.666999 19.716 9.666999 18.75C 9.666999 17.784 10.711999 17 11.999999 17C 12.932999 17 13.737999 17.411 14.1119995 18.005C 16.012 17.979 18.448 17.671 20 15.359999L20 15.359999L20 13.123999zM9 12.500001C 9.686 12.500001 10.243 13.172001 10.243 14.000001C 10.243 14.828001 9.686 15.500001 9 15.500001C 8.314 15.500001 7.757 14.828001 7.757 14.000001C 7.757 13.172001 8.314 12.500001 9 12.500001zM15 12.500001C 15.686 12.500001 16.243 13.172001 16.243 14.000001C 16.243 14.828001 15.686 15.500001 15 15.500001C 14.314 15.500001 13.757 14.828001 13.757 14.000001C 13.757 13.172001 14.314 12.500001 15 12.500001zM20.478 11.000001L21.835001 11.000001C 20.979 5.882001 16.898 2.000001 12.000001 2.000001C 7.102001 2.000001 3.0210009 5.882001 2.165001 11.000001L2.165001 11.000001L3.5220008 11.000001C 4.042001 6.977001 6.9330006 3.2780008 12 3.2780008C 17.067 3.2780008 19.958 6.9770007 20.478 11.000001z" stroke="none" fill="#000000" fill-rule="nonzero" />
</g>
</svg>