<?xml version="1.0" standalone="no"?>
<!DOCTYPE svg PUBLIC "-//W3C//DTD SVG 1.0//EN" "http://www.w3.org/TR/2001/REC-SVG-20010904/DTD/svg10.dtd">
<svg xmlns="http://www.w3.org/2000/svg" xmlns:xlink="http://www.w3.org/1999/xlink" id="body_1" width="25" height="19">

<g transform="matrix(0.037109375 0 0 0.037109375 1.8124999 -0)">
    <path d="M408 120C 408 174.6 334.9 271.9 302.8 311.1C 295.1 321.6 280.9 321.6 273.2 311.1C 241.1 271.9 168 174.6 168 120C 168 53.73 221.7 0 288 0C 354.3 0 408 53.73 408 120zM288 152C 310.1 152 328 134.1 328 112C 328 89.91 310.1 72 288 72C 265.9 72 248 89.91 248 112C 248 134.1 265.9 152 288 152zM425.6 179.8C 426.1 178.6 426.6 177.4 427.1 176.1L427.1 176.1L543.1 129.7C 558.9 123.4 576 135 576 152L576 152L576 422.8C 576 432.6 570 441.4 560.9 445.1L560.9 445.1L416 503L416 200.4C 419.5 193.5 422.7 186.7 425.6 179.8zM150.4 179.8C 153.3 186.7 156.5 193.5 160 200.4L160 200.4L160 451.8L32.91 502.7C 17.15 508.1 0 497.4 0 480.4L0 480.4L0 209.6C 0 199.8 5.975 190.1 15.09 187.3L15.09 187.3L137.6 138.3C 140 152.5 144.9 166.6 150.4 179.8zM327.8 331.1C 341.7 314.6 363.5 286.3 384 255L384 255L384 504.3L192 449.4L192 255C 212.5 286.3 234.3 314.6 248.2 331.1C 268.7 357.6 307.3 357.6 327.8 331.1z" stroke="none" fill="#000000" fill-rule="nonzero" />
</g>
</svg>