<?xml version="1.0" standalone="no"?>
<!DOCTYPE svg PUBLIC "-//W3C//DTD SVG 1.0//EN" "http://www.w3.org/TR/2001/REC-SVG-20010904/DTD/svg10.dtd">
<svg xmlns="http://www.w3.org/2000/svg" xmlns:xlink="http://www.w3.org/1999/xlink" id="body_1" width="25" height="19">

<g transform="matrix(0.037109375 0 0 0.037109375 4.1875 -0)">
    <path d="M224 64C 179.8 64 144 99.82 144 144L144 144L144 192L384 192C 419.3 192 448 220.7 448 256L448 256L448 448C 448 483.3 419.3 512 384 512L384 512L64 512C 28.65 512 0 483.3 0 448L0 448L0 256C 0 220.7 28.65 192 64 192L64 192L80 192L80 144C 80 64.47 144.5 0 224 0C 281.5 0 331 33.69 354.1 82.27C 361.7 98.23 354.9 117.3 338.1 124.9C 322.1 132.5 303.9 125.7 296.3 109.7C 283.4 82.63 255.9 64 224 64zM256 384C 273.7 384 288 369.7 288 352C 288 334.3 273.7 320 256 320L256 320L192 320C 174.3 320 160 334.3 160 352C 160 369.7 174.3 384 192 384L192 384L256 384z" stroke="none" fill="#000000" fill-rule="nonzero" />
</g>
</svg>